<?xml version="1.0" standalone="no"?><!DOCTYPE svg PUBLIC "-//W3C//DTD SVG 1.1//EN" "http://www.w3.org/Graphics/SVG/1.1/DTD/svg11.dtd"><svg t="1574386390721" class="icon" viewBox="0 0 1024 1024" version="1.1" xmlns="http://www.w3.org/2000/svg" p-id="1911" xmlns:xlink="http://www.w3.org/1999/xlink" width="200" height="200"><defs><style type="text/css"></style></defs><path d="M762.307651 203.002157c-4.264309 0-8.529017-1.632493-11.794004-4.864302-6.496395-6.496795-6.496395-17.057635 0-23.55443l144.591567-144.858186c6.496395-6.496795 17.057635-6.496795 23.55443 0s6.496395 17.057635 0 23.55443l-144.591567 144.858186C770.836669 201.369663 766.57196 203.002157 762.307651 203.002157zM889.441455 271.633225c-4.331064 0-8.62895-1.665671-11.860359-4.997412-6.43004-6.529973-6.330108-17.091212 0.199864-23.55443l47.175615-46.34258c6.596727-6.363286 17.191144-6.296931 23.55443 0.266619 6.43004 6.529973 6.330108 17.091212-0.199864 23.55443L901.135526 266.902432C897.87054 270.067486 893.639408 271.633225 889.441455 271.633225zM110.312904 782.168282c-4.264309 0-8.562195-1.632493-11.794004-4.89748-6.463218-6.496795-6.463218-17.057635 0.066755-23.55443l63.900276-63.633656c6.496795-6.43004 17.057635-6.496795 23.55443 0.066755 6.463218 6.496795 6.463218 17.057635-0.066755 23.55443l-63.900276 63.633656C118.808344 780.535789 114.577213 782.168282 110.312904 782.168282zM24.724133 865.957873c-4.264309 0-8.562195-1.632493-11.794004-4.89748-6.463218-6.496795-6.463218-17.091212 0.066755-23.55443l37.947072-37.747207c6.496795-6.43004 17.057635-6.496795 23.55443 0.066755 6.463218 6.496795 6.463218 17.091212-0.066755 23.55443l-37.947072 37.747207C33.219573 864.325379 28.988442 865.957873 24.724133 865.957873zM1002.149439 460.235352c13.759471-15.691761 18.057357-36.247824 11.394275-54.971529-6.69666-19.256544-21.355521-32.483176-41.411923-37.213969L725.226792 315.977159c-9.595095-2.232087-16.358109-6.996456-21.088902-14.792371l-126.201236-218.120115c-10.327798-17.690806-27.885494-27.852316-48.27487-27.852316-20.988969 0-39.113081 10.594417-48.308047 27.885494L354.252713 301.484585c-4.131199 7.629227-10.494485 12.22691-19.856537 14.458997L86.891584 368.083032c-20.522486 4.864302-35.581476 18.623773-41.145303 37.147214-6.829769 19.589918-2.465528 40.245913 11.494207 55.071462l169.278829 188.068889c5.963557 5.896802 8.662127 13.759471 7.529295 22.421598l-26.086313 250.369849c-2.83168 20.755927 5.330386 39.545988 22.055047 51.273237 16.158245 12.260487 37.247546 14.392642 56.170716 5.930379l230.580067-101.913703c8.695305-3.797825 16.657906-3.898157 24.987059-0.033178l231.146483 101.81377c7.46294 3.498028 15.292032 5.330386 23.321388 5.330386 11.494207 0 22.888082-3.764648 32.716218-10.894214 16.191422-11.427452 24.353888-29.984471 22.455175-51.106949l-26.119891-251.036197c-1.0329-8.195643 1.599316-16.424864 7.329431-22.621463L1002.149439 460.235352z" p-id="1912" fill="#DCDFE6"></path></svg>