<?xml version="1.0" standalone="no"?><!DOCTYPE svg PUBLIC "-//W3C//DTD SVG 1.1//EN" "http://www.w3.org/Graphics/SVG/1.1/DTD/svg11.dtd"><svg t="1572572620566" class="icon" viewBox="0 0 1280 1024" version="1.1" xmlns="http://www.w3.org/2000/svg" p-id="1981" xmlns:xlink="http://www.w3.org/1999/xlink" width="250" height="200"><defs><style type="text/css"></style></defs><path d="M1088 384h-32L838.44 112.04A128.05 128.05 0 0 0 738.48 64H310.66c-52.34 0-99.4 31.86-118.84 80.46L96 388.52C40.88 402.8 0 452.42 0 512v224c0 17.68 14.32 32 32 32h96c0 106.04 85.96 192 192 192s192-85.96 192-192h256c0 106.04 85.96 192 192 192s192-85.96 192-192h96c17.68 0 32-14.32 32-32v-160c0-106.04-85.96-192-192-192zM320 864c-52.94 0-96-43.06-96-96s43.06-96 96-96 96 43.06 96 96-43.06 96-96 96z m144-480H233.86l76.8-192H464v192z m96 0V192h178.48l153.6 192H560z m400 480c-52.94 0-96-43.06-96-96s43.06-96 96-96 96 43.06 96 96-43.06 96-96 96z" fill="" p-id="1982"></path></svg>