<?xml version="1.0" standalone="no"?><!DOCTYPE svg PUBLIC "-//W3C//DTD SVG 1.1//EN" "http://www.w3.org/Graphics/SVG/1.1/DTD/svg11.dtd"><svg t="1574332155924" class="icon" viewBox="0 0 1090 1024" version="1.1" xmlns="http://www.w3.org/2000/svg" p-id="4795" xmlns:xlink="http://www.w3.org/1999/xlink" width="212.890625" height="200"><defs><style type="text/css"></style></defs><path d="M1090.693538 462.924728H0V188.123271h1090.693538zM44.819128 418.055429h1001.055282V232.959122H44.819128z" fill="#707070" p-id="4796"></path><path d="M1038.398981 1024H52.294557V419.711061h986.104424zM97.163855 979.164149h896.382551V464.597083h-896.382551z" fill="#707070" p-id="4797"></path><path d="M527.594715 209.71338h37.360422v791.860333h-37.360422z" fill="#707070" p-id="4798"></path><path d="M766.005716 228.794957l-161.984354-0.953243-51.843021-1.170649-5.251196-9.097614c-18.395911-32.008884-6.839934-79.085692 23.948131-96.862831l192.320883-111.061129a65.573059 65.573059 0 0 1 89.387402 23.948131l58.532442 101.244402a65.573059 65.573059 0 0 1-23.948131 89.387402l-4.180888 2.408192z m-189.929415-38.882266l28.430044 0.652219 161.215071 0.953243 106.194574-1.956656a28.12902 28.12902 0 0 0 6.689422-35.972367l-58.532442-101.244403a28.229361 28.229361 0 0 0-38.363836-10.284986l-192.320883 111.061129c-10.234816 6.003756-15.80376 23.078506-13.31195 36.791821z" fill="#707070" p-id="4799"></path><path d="M321.025363 232.139668h-0.568601l-116.563179-6.522187-3.846417-2.224232a65.522889 65.522889 0 0 1-23.948131-89.387402l58.532443-101.244403a65.506165 65.506165 0 0 1 89.387401-23.964854l192.320884 111.061129c30.687724 17.743692 42.394212 64.803776 23.89796 96.81266l-4.632425 8.04403-52.461792 6.455293z m-105.55908-43.314008l106.495599 5.970309 159.843739-0.953242 28.981921-3.645735a41.808888 41.808888 0 0 0-0.301024-17.844034c-2.123891-9.197955-6.923552-16.723555-12.877137-20.168607l-192.320883-111.061129a28.12902 28.12902 0 0 0-38.363836 10.284986l-58.532442 101.244403a28.12902 28.12902 0 0 0 7.074063 36.156326z" fill="#DCDFE6" p-id="4800"></path></svg>