<?xml version="1.0" standalone="no"?><!DOCTYPE svg PUBLIC "-//W3C//DTD SVG 1.1//EN" "http://www.w3.org/Graphics/SVG/1.1/DTD/svg11.dtd"><svg t="1574388006571" class="icon" viewBox="0 0 1095 1024" version="1.1" xmlns="http://www.w3.org/2000/svg" p-id="6546" xmlns:xlink="http://www.w3.org/1999/xlink" width="213.8671875" height="200"><defs><style type="text/css"></style></defs><path d="M1059.00085813 374.85395375v228.61395281c0 6.56372063-2.098605 12.21209344-6.56372157 16.32a23.66511656 23.66511656 0 0 1-16.61023218 6.45209344h-92.09302313v297.17581406c0 19.06604625-6.67534875 35.25209344-20.36093062 48.55813969a68.09302313 68.09302313 0 0 1-49.40651157 20.02604625H217.0585325c-19.40093063 0-35.87720906-6.58604625-49.40651156-20.02604625a65.72651156 65.72651156 0 0 1-20.36093063-48.55813969V626.35162813H55.17574156c-6.67534875 0-12.41302313-2.05395375-16.58790656-6.42976782a21.65581406 21.65581406 0 0 1-6.56372156-16.32V374.85395375c0-6.58604625 2.07627937-12.21209344 6.56372156-16.32 4.46511656-4.39813969 9.91255781-6.45209344 16.58790656-6.45209344h275.18511657c-45.07534875 0-83.45302313-15.62790656-115.26697688-46.7720925-31.81395375-31.25581406-47.57581406-68.98604625-47.57581406-113.28s15.89581406-82.00186031 47.57581406-113.28C246.907835 47.49395375 285.28550938 32 330.36085813 32c51.77302313 0 92.49488344 18.37395375 122.07627843 54.98790656l93.07534875 117.94604719 93.07534969-117.94604719C668.01295063 50.37395375 708.89109031 32 760.68643906 32c45.05302313 0 83.4306975 15.62790656 115.24465125 46.74976781 31.81395375 31.27813969 47.57581406 68.98604625 47.57581407 113.28s-15.89581406 82.02418594-47.57581407 113.28c-31.81395375 31.27813969-70.19162813 46.77209344-115.24465125 46.7720925h275.14046532c6.69767438 0 12.43534875 2.05395375 16.61023218 6.45209344 4.33116281 4.24186031 6.56372063 9.73395375 6.56372157 16.32zM330.36085813 260.61395375h141.63348843l-91.55721-115.06604719c-12.5693025-14.66790656-29.29116281-22.08-50.07627843-22.08-19.40093063 0-35.87720906 6.56372063-49.40651157 20.02604719a65.77116281 65.77116281 0 0 0-20.36093062 48.53581406c0 19.06604625 6.69767438 35.25209344 20.36093062 48.55813875 13.5293025 13.30604625 30.00558094 20.02604625 49.40651157 20.02604719z m309.07534875 558.20651156V351.94790656h-187.98139594v466.60465125c0 11.94418594 4.48744219 20.98604625 13.12744219 27.43813969 8.66232563 6.45209344 19.82511656 9.6 33.48837187 9.6h94.88372156c13.5293025 0 24.69209344-3.14790656 33.48837188-9.6 8.50604625-6.05023219 12.99348844-15.22604625 12.99348844-27.17023219z m170.63441812-578.23255875a65.74883719 65.74883719 0 0 0 20.38325625-48.55813875c0-19.06604625-6.72-35.22976781-20.38325625-48.53581406a68.13767438 68.13767438 0 0 0-49.38418594-20.02604719c-20.78511656 0-37.55162813 7.41209344-50.09860406 22.08l-90.84279094 115.06604719h140.941395c19.24465125 0 35.698605-6.72 49.38418594-20.02604719z" p-id="6547" fill="#1ABC9C"></path></svg>