<?xml version="1.0" standalone="no"?><!DOCTYPE svg PUBLIC "-//W3C//DTD SVG 1.1//EN" "http://www.w3.org/Graphics/SVG/1.1/DTD/svg11.dtd"><svg t="1574387857889" class="icon" viewBox="0 0 1024 1024" version="1.1" xmlns="http://www.w3.org/2000/svg" p-id="5411" xmlns:xlink="http://www.w3.org/1999/xlink" width="200" height="200"><defs><style type="text/css"></style></defs><path d="M797.12 546.112l-64.128 109.312 50.624 0 0 24.128-59.008 0 0 33.28 59.008 0 0 24.512-59.008 0 0 48.384L694.4 785.728 694.4 737.28 633.152 737.28l0-24.512 61.248 0 0-33.28L633.152 679.488 633.152 655.36l52.224 0L621.76 546.112l34.112 0c29.76 54.272 47.872 88.64 54.272 103.296l0.64 0c2.112-6.016 8.128-18.112 17.728-36.224l36.352-67.008L797.12 546.176z" p-id="5412" fill="#1ABC9C"></path><path d="M785.6 385.408c0.256-26.624 1.28-151.68 1.28-152.256 0-73.216-167.872-112.704-326.016-112.704-158.016 0-325.888 39.488-325.888 112.768l0.768 91.712C69.376 345.92 33.472 374.208 33.472 407.552c0 0 1.728 160.512 1.728 160.64 0.128 16 21.632 32.448 33.152 40.32 5.12 3.52 28.352 15.232 44.992 23.232C112.256 631.232 110.976 630.976 110.016 630.656 102.72 627.648 96.64 624.384 90.24 621.12L84.352 621.12l0 0.384 1.6 169.024c17.28 66.368 176.128 101.12 324.224 101.12 39.104 0 78.656-3.008 116.48-8 48.896 38.528 109.76 62.528 176.64 62.528 158.4 0 287.168-128.768 287.168-287.104C990.528 529.472 903.808 421.056 785.6 385.408zM703.36 371.968c-84.736 0-160.256 37.568-212.864 96.128C480.64 468.544 470.848 469.312 460.864 469.312c-171.776 0-289.152-42.56-299.008-78.848L161.344 333.696 161.024 279.168c52.992 43.52 179.264 66.624 299.904 66.624 30.656 0 61.632-1.536 91.648-4.352 6.976-0.704 14.272-1.536 21.376-2.432 1.728-0.256 3.648-0.384 5.376-0.64 4.224-0.576 8.384-1.216 12.608-1.856 6.528-0.96 12.992-1.92 19.264-3.008C612.096 333.376 613.12 333.184 614.144 333.056c62.848-11.008 116.48-29.056 146.88-53.888l-0.64 98.624C741.952 373.952 722.88 371.968 703.36 371.968zM460.864 146.048c177.024 0 300.352 45.888 300.352 87.04 0 4.48-2.112 9.024-4.864 13.504-1.472 2.24-3.648 4.544-5.888 6.848-1.856 2.048-4.032 4.032-6.4 6.08-3.52 2.816-7.36 5.632-11.904 8.448-2.112 1.344-4.608 2.624-7.104 3.968-5.504 3.008-11.136 6.08-17.856 8.96-1.344 0.576-3.008 1.088-4.352 1.664-14.144 5.76-30.848 11.072-49.856 15.936-4.608 1.216-8.896 2.496-13.76 3.584-8.128 1.856-17.28 3.392-26.24 5.056C606.4 308.288 599.872 309.504 592.768 310.592 583.616 312 573.888 313.088 564.032 314.24 532.224 317.76 498.112 320.192 460.864 320.192c-177.024 0-300.224-45.888-300.224-87.04S283.904 146.048 460.864 146.048zM59.136 407.552c0-19.072 28.992-40.128 76.992-56.384l0.64 42.624c14.976 58.048 138.24 91.776 267.904 99.392C405.76 493.248 406.848 493.312 408 493.376c-16 0.768-32.128 1.216-48.64 1.216-86.272 0-186.112-6.08-264.256-47.36C80.768 439.616 59.392 426.56 59.136 407.872L59.136 407.552zM94.272 596.48c-9.6-5.248-33.728-17.856-33.856-31.68 0 0-0.896-111.04 0-110.4 6.144 4.8 13.12 9.408 20.992 13.824 1.28 0.768 2.752 1.408 4.096 2.112 7.616 4.032 15.744 7.808 24.64 11.328C110.976 482.048 111.744 482.432 112.64 482.752c9.728 3.776 20.224 7.168 31.232 10.368 1.856 0.576 3.776 1.088 5.632 1.6 10.752 3.008 21.888 5.76 35.264 8.64C196.864 505.92 209.6 508.16 222.528 510.08c2.496 0.384 4.864 0.704 7.36 1.088C242.496 512.96 255.36 514.56 269.504 515.968c13.248 1.28 26.752 2.176 40.256 2.88 3.136 0.128 6.144 0.32 9.28 0.448 13.504 0.576 27.008 0.96 40.384 0.96 20.48 0 40.512-0.96 60.224-2.112 6.4-0.448 12.608-0.832 19.008-1.344 6.144-0.512 12.032-1.344 17.92-1.984-22.208 37.696-35.712 80.64-38.592 126.72-87.616 3.904-177.344 2.24-262.272-21.76C134.656 613.76 113.472 606.848 94.272 596.48zM417.024 666.88c0.512 16.896 1.728 33.472 4.992 49.6-3.904 0.128-7.616 0.512-11.776 0.512-167.36 0-278.272-47.104-296.64-85.12C121.344 635.52 127.744 638.528 129.856 639.232c9.28 3.264 19.008 4.48 28.48 7.104 20.992 5.888 42.368 10.24 64 13.632 43.008 6.528 86.4 9.28 129.984 9.28C373.888 669.248 395.52 668.032 417.024 666.88zM111.104 787.136l-0.896-119.232c50.24 43.392 167.36 74.752 300.032 74.752 6.656 0 13.056-0.512 19.648-0.896 13.76 45.504 37.376 86.72 70.016 119.488-27.968 2.752-57.408 4.736-89.6 4.736C238.4 865.984 121.024 823.488 111.104 787.136zM703.36 920.512c-144.256 0-261.504-117.248-261.504-261.504 0-144.128 117.248-261.44 261.504-261.44 144.256 0 261.504 117.312 261.504 261.44C964.928 803.264 847.68 920.512 703.36 920.512z" p-id="5413" fill="#1ABC9C"></path></svg>