<?xml version="1.0" standalone="no"?><!DOCTYPE svg PUBLIC "-//W3C//DTD SVG 1.1//EN" "http://www.w3.org/Graphics/SVG/1.1/DTD/svg11.dtd"><svg t="1574387657149" class="icon" viewBox="0 0 1024 1024" version="1.1" xmlns="http://www.w3.org/2000/svg" p-id="3067" xmlns:xlink="http://www.w3.org/1999/xlink" width="200" height="200"><defs><style type="text/css"></style></defs><path d="M928.768 139.264C928.768 62.464 742.4 0 512 0S95.232 62.464 95.232 139.264v185.344c0 16.384 9.216 31.744 24.576 46.08-15.36 14.336-24.576 29.696-24.576 46.08v185.344c0 16.384 9.216 31.744 24.576 46.08-15.36 14.336-24.576 29.696-24.576 46.08v186.368c0 76.8 186.368 139.264 416.768 139.264s416.768-62.464 416.768-139.264v-185.344c0-16.384-9.216-31.744-24.576-46.08 15.36-14.336 24.576-29.696 24.576-46.08v-186.368c0-16.384-9.216-31.744-24.576-46.08 15.36-14.336 24.576-29.696 24.576-46.08V139.264z m-46.08 741.376c0 51.2-165.888 92.16-370.688 92.16S141.312 931.84 141.312 880.64v-121.856C210.944 803.84 350.208 834.56 512 834.56s301.056-30.72 370.688-75.776v121.856zM512 787.456c-204.8 0-370.688-41.984-370.688-92.16 0-8.192 4.096-15.36 11.264-22.528C225.28 713.728 358.4 741.376 512 741.376s286.72-27.648 359.424-68.608c7.168 7.168 11.264 14.336 11.264 22.528 0 51.2-165.888 92.16-370.688 92.16z m370.688-185.344c0 51.2-165.888 92.16-370.688 92.16s-370.688-41.984-370.688-92.16v-121.856c69.632 45.056 208.896 75.776 370.688 75.776s301.056-30.72 370.688-75.776v121.856zM512 509.952c-204.8 0-370.688-41.984-370.688-92.16 0-8.192 4.096-15.36 11.264-22.528C225.28 436.224 358.4 463.872 512 463.872s286.72-27.648 359.424-68.608c7.168 7.168 11.264 14.336 11.264 22.528 0 50.176-165.888 92.16-370.688 92.16z m370.688-185.344c0 51.2-165.888 92.16-370.688 92.16s-370.688-41.984-370.688-92.16V202.752C210.944 247.808 350.208 278.528 512 278.528s301.056-30.72 370.688-75.776v121.856zM512 231.424c-204.8 0-370.688-41.984-370.688-92.16S307.2 47.104 512 47.104s370.688 41.984 370.688 92.16S716.8 231.424 512 231.424z" p-id="3068" fill="#1ABC9C"></path></svg>