<?xml version="1.0" standalone="no"?><!DOCTYPE svg PUBLIC "-//W3C//DTD SVG 1.1//EN" "http://www.w3.org/Graphics/SVG/1.1/DTD/svg11.dtd"><svg t="1573795242194" class="icon" viewBox="0 0 1000 1000" version="1.1" xmlns="http://www.w3.org/2000/svg" p-id="6948" xmlns:xlink="http://www.w3.org/1999/xlink" width="200" height="200"><defs><style type="text/css"></style></defs><path d="M500.18749999 2.66666667c-271.8413578 0-492.1875 220.34624063-492.1875 492.1875s220.34624063 492.1875 492.1875 492.1875 492.1875-220.34624063 492.1875-492.1875-220.34624063-492.1875-492.1875-492.1875zM500.18749999 894.75651042c-220.86914062 0-399.90234375-179.03320313-399.90234375-399.90234375s179.03320313-399.90234375 399.90234375-399.90234375 399.90234375 179.03320313 399.90234376 399.90234375-179.03320313 399.90234375-399.90234376 399.90234375zM789.7783203 451.35709636l-246.09375-246.09375001c-24.02495156-24.02495156-62.9692875-24.02495156-86.99414062 1e-8s-24.02495156 62.9692875 0 86.99414061l141.07324217 141.0732422-343.66992186 1e-8c-33.99174845 0-61.5234375 27.5317875-61.5234375 61.52343749s27.5317875 61.5234375 61.5234375 61.52343751l343.66992187-1e-8-141.07324218 141.07324218c-24.02495156 24.02495156-24.02495156 62.9692875 0 87.02495156 12.02788125 11.99707032 27.7470703 18.02636719 43.49707031 18.0263672s31.5-5.99858438 43.49707031-18.02636719l246.09375-246.09375c24.02495156-24.02495156 24.02495156-62.9692875 0-86.99414063z" fill="#707070" p-id="6949"></path></svg>