<?xml version="1.0" standalone="no"?><!DOCTYPE svg PUBLIC "-//W3C//DTD SVG 1.1//EN" "http://www.w3.org/Graphics/SVG/1.1/DTD/svg11.dtd"><svg t="1574125784080" class="icon" viewBox="0 0 1024 1024" version="1.1" xmlns="http://www.w3.org/2000/svg" p-id="1906" xmlns:xlink="http://www.w3.org/1999/xlink" width="200" height="200"><defs><style type="text/css"></style></defs><path d="M512 1021.672727C231.563636 1021.672727 3.490909 792.436364 3.490909 512S231.563636 3.490909 512 3.490909 1021.672727 231.563636 1021.672727 512 792.436364 1021.672727 512 1021.672727z m0-968.145454C260.654545 53.527273 55.854545 259.490909 55.854545 512S260.654545 970.472727 512 970.472727 968.145455 764.509091 968.145455 512 763.345455 53.527273 512 53.527273z m-33.745455 535.272727c-3.490909 0-5.818182 0-9.30909-1.163636-15.127273-3.490909-23.272727-13.963636-23.272728-30.254546V226.909091c0-19.781818 12.8-33.745455 31.418182-33.745455 17.454545 0 31.418182 13.963636 31.418182 33.745455v299.054545h300.218182c19.781818 0 33.745455 12.8 33.745454 31.418182s-13.963636 31.418182-33.745454 31.418182H478.254545z" fill="#cccccc" p-id="1907"></path></svg>